<svg width="25" height="24" viewBox="0 0 25 24" fill="none" xmlns="http://www.w3.org/2000/svg">
<path d="M6.27859 1.19995C4.82391 1.19995 3.64344 2.75494 3.64344 4.66495C3.64344 6.57307 4.82391 8.12846 6.27859 8.12846C7.73327 8.12846 8.91298 6.57307 8.91298 4.66495C8.91298 2.75494 7.73325 1.19995 6.27859 1.19995ZM17.7246 1.19995C16.2699 1.19995 15.0902 2.75494 15.0902 4.66495C15.0902 6.57307 16.2699 8.12846 17.7246 8.12846C19.1792 8.12846 20.3597 6.57307 20.3597 4.66495C20.3597 2.75494 19.1792 1.19995 17.7246 1.19995ZM11.8612 15.5722C7.892 15.5837 3.9226 17.0542 0.794351 19.9882L0.724537 20.0595C0.583203 20.1934 0.467095 20.304 0.377677 20.394C-0.12075 20.8944 -0.12618 21.7138 0.363407 22.2232C0.852922 22.7327 1.65549 22.7386 2.15395 22.2382L2.44449 21.951L2.51056 21.8932C5.19977 19.3709 8.62123 18.1269 12.0294 18.1575C15.4632 18.1871 18.8893 19.5111 21.5444 22.1205C21.6428 22.2167 21.7396 22.3145 21.835 22.4137C22.325 22.9232 23.1271 22.9296 23.6255 22.4287C24.1239 21.9284 24.1293 21.1082 23.6398 20.5987C23.5282 20.4825 23.4148 20.3679 23.2997 20.2552C20.163 17.1728 16.1119 15.6071 12.0504 15.5722C11.9874 15.5717 11.9242 15.572 11.8612 15.5722L11.8612 15.5722Z" fill="#888888"/>
</svg>
