<svg width="24" height="24" viewBox="0 0 24 24" fill="none" xmlns="http://www.w3.org/2000/svg">
<path fill-rule="evenodd" clip-rule="evenodd" d="M21.6 11.9999C21.6 14.546 20.5886 16.9878 18.7882 18.7881C16.9879 20.5885 14.5461 21.5999 12 21.5999C9.45395 21.5999 7.01215 20.5885 5.2118 18.7881C3.41145 16.9878 2.40002 14.546 2.40002 11.9999C2.40002 9.45382 3.41145 7.01203 5.2118 5.21168C7.01215 3.41133 9.45395 2.3999 12 2.3999C14.5461 2.3999 16.9879 3.41133 18.7882 5.21168C20.5886 7.01203 21.6 9.45382 21.6 11.9999ZM13.2 7.1999C13.2 7.51816 13.0736 7.82339 12.8486 8.04843C12.6235 8.27347 12.3183 8.3999 12 8.3999C11.6818 8.3999 11.3765 8.27347 11.1515 8.04843C10.9265 7.82339 10.8 7.51816 10.8 7.1999C10.8 6.88164 10.9265 6.57642 11.1515 6.35137C11.3765 6.12633 11.6818 5.9999 12 5.9999C12.3183 5.9999 12.6235 6.12633 12.8486 6.35137C13.0736 6.57642 13.2 6.88164 13.2 7.1999ZM10.8 10.7999C10.4818 10.7999 10.1765 10.9263 9.9515 11.1514C9.72645 11.3764 9.60002 11.6816 9.60002 11.9999C9.60002 12.3182 9.72645 12.6234 9.9515 12.8484C10.1765 13.0735 10.4818 13.1999 10.8 13.1999V16.7999C10.8 17.1182 10.9265 17.4234 11.1515 17.6484C11.3765 17.8735 11.6818 17.9999 12 17.9999H13.2C13.5183 17.9999 13.8235 17.8735 14.0486 17.6484C14.2736 17.4234 14.4 17.1182 14.4 16.7999C14.4 16.4816 14.2736 16.1764 14.0486 15.9514C13.8235 15.7263 13.5183 15.5999 13.2 15.5999V11.9999C13.2 11.6816 13.0736 11.3764 12.8486 11.1514C12.6235 10.9263 12.3183 10.7999 12 10.7999H10.8Z" fill="#888888"/>
</svg>
