<svg width="24" height="24" viewBox="0 0 24 24" fill="none" xmlns="http://www.w3.org/2000/svg">
<path opacity="0.2" d="M14.25 19.5V15C14.25 14.8011 14.171 14.6103 14.0303 14.4697C13.8897 14.329 13.6989 14.25 13.5 14.25H10.5C10.3011 14.25 10.1103 14.329 9.96967 14.4697C9.82902 14.6103 9.75 14.8011 9.75 15V19.5C9.75 19.6989 9.67098 19.8897 9.53033 20.0303C9.38968 20.171 9.19891 20.25 9 20.25H4.5C4.30109 20.25 4.11032 20.171 3.96967 20.0303C3.82902 19.8897 3.75 19.6989 3.75 19.5V10.8281C3.75168 10.7243 3.77411 10.6219 3.81597 10.5269C3.85783 10.4319 3.91828 10.3463 3.99375 10.275L11.4937 3.45938C11.632 3.33289 11.8126 3.26274 12 3.26274C12.1874 3.26274 12.368 3.33289 12.5062 3.45938L20.0062 10.275C20.0835 10.3449 20.1451 10.4303 20.1871 10.5256C20.2291 10.6209 20.2505 10.724 20.25 10.8281V19.5C20.25 19.6989 20.171 19.8897 20.0303 20.0303C19.8897 20.171 19.6989 20.25 19.5 20.25H15C14.8011 20.25 14.6103 20.171 14.4697 20.0303C14.329 19.8897 14.25 19.6989 14.25 19.5Z" fill="#888888"/>
<path d="M19.5 21H15C14.6022 21 14.2206 20.842 13.9393 20.5607C13.658 20.2793 13.5 19.8978 13.5 19.5V15H10.5V19.5C10.5 19.8978 10.342 20.2793 10.0607 20.5607C9.77936 20.842 9.39782 21 9 21H4.5C4.10218 21 3.72064 20.842 3.43934 20.5607C3.15804 20.2793 3 19.8978 3 19.5V10.8281C3.00007 10.62 3.04344 10.4142 3.12737 10.2237C3.2113 10.0333 3.33394 9.86235 3.4875 9.72187L10.9875 2.90624C11.264 2.65327 11.6252 2.51297 12 2.51297C12.3748 2.51297 12.736 2.65327 13.0125 2.90624L20.5125 9.72187C20.6661 9.86235 20.7887 10.0333 20.8726 10.2237C20.9566 10.4142 20.9999 10.62 21 10.8281V19.5C21 19.8978 20.842 20.2793 20.5607 20.5607C20.2794 20.842 19.8978 21 19.5 21ZM10.5 13.5H13.5C13.8978 13.5 14.2794 13.658 14.5607 13.9393C14.842 14.2206 15 14.6022 15 15V19.5H19.5V10.8281L12 4.01249L4.5 10.8281V19.5H9V15C9 14.6022 9.15804 14.2206 9.43934 13.9393C9.72064 13.658 10.1022 13.5 10.5 13.5Z" fill="#888888"/>
</svg>
