<svg width="24" height="24" viewBox="0 0 24 24" fill="none" xmlns="http://www.w3.org/2000/svg">
<path opacity="0.2" d="M21 6L12 9L3 6L12 3L21 6Z" fill="#888888"/>
<path d="M21.2344 5.28751L12.2344 2.2875C12.0817 2.24051 11.9184 2.24051 11.7656 2.2875L2.77502 5.28751H2.75627L2.66252 5.33438H2.65314L2.55939 5.39063C2.55939 5.40001 2.55002 5.40001 2.54064 5.40938L2.46564 5.47501L2.40002 5.55001C2.40002 5.55938 2.39064 5.55938 2.39064 5.56876L2.33439 5.65313C2.33439 5.66251 2.33439 5.66251 2.32502 5.67188L2.28752 5.75626L2.25939 5.85938V5.88751C2.25015 5.92424 2.24698 5.96225 2.25002 6.00001V13.5C2.25002 13.6989 2.32904 13.8897 2.46969 14.0303C2.61034 14.171 2.80111 14.25 3.00002 14.25C3.19893 14.25 3.3897 14.171 3.53035 14.0303C3.671 13.8897 3.75002 13.6989 3.75002 13.5V7.04063L6.90002 8.09063C6.30823 9.03788 5.99624 10.1331 6.00002 11.25C6.00036 12.2658 6.25859 13.2649 6.75051 14.1536C7.24243 15.0423 7.95193 15.7916 8.81252 16.3313C7.02414 17.0078 5.49738 18.2358 4.45314 19.8375C4.34671 20.0058 4.31065 20.2092 4.35273 20.4039C4.39482 20.5985 4.51168 20.7688 4.67814 20.8781C4.75983 20.9323 4.85145 20.9696 4.94769 20.9881C5.04393 21.0066 5.14288 21.0057 5.2388 20.9857C5.33472 20.9656 5.4257 20.9267 5.50648 20.8713C5.58726 20.8158 5.65623 20.7448 5.70939 20.6625C6.39014 19.6139 7.32221 18.7521 8.42085 18.1555C9.51948 17.5589 10.7498 17.2464 12 17.2464C13.2502 17.2464 14.4805 17.5589 15.5792 18.1555C16.6778 18.7521 17.6099 19.6139 18.2906 20.6625C18.3591 20.7665 18.4524 20.8518 18.562 20.9107C18.6717 20.9696 18.7943 21.0003 18.9188 21C19.0624 21.0015 19.2031 20.959 19.3219 20.8781C19.4884 20.7688 19.6052 20.5985 19.6473 20.4039C19.6894 20.2092 19.6533 20.0058 19.5469 19.8375C18.5026 18.2358 16.9759 17.0078 15.1875 16.3313C16.0481 15.7916 16.7576 15.0423 17.2495 14.1536C17.7414 13.2649 17.9997 12.2658 18 11.25C18.0038 10.1331 17.6918 9.03788 17.1 8.09063L21.2344 6.71251C21.3844 6.66319 21.5151 6.56775 21.6077 6.43981C21.7003 6.31187 21.7502 6.15795 21.7502 6.00001C21.7502 5.84206 21.7003 5.68814 21.6077 5.5602C21.5151 5.43226 21.3844 5.33683 21.2344 5.28751ZM16.5 11.25C16.5 12.4435 16.0259 13.5881 15.182 14.432C14.3381 15.2759 13.1935 15.75 12 15.75C10.8065 15.75 9.66195 15.2759 8.81804 14.432C7.97412 13.5881 7.50002 12.4435 7.50002 11.25C7.50183 10.2898 7.80697 9.35463 8.37189 8.57813L11.7656 9.71251C11.9179 9.76259 12.0822 9.76259 12.2344 9.71251L15.6281 8.57813C16.1931 9.35463 16.4982 10.2898 16.5 11.25ZM15.6281 7.00313H15.6188L12 8.21251L8.38127 7.00313H8.37189L5.37189 6.00001L12 3.78751L18.6281 6.00001L15.6281 7.00313Z" fill="#888888"/>
</svg>
