<svg width="24" height="24" viewBox="0 0 24 24" fill="none" xmlns="http://www.w3.org/2000/svg">
<path d="M20 3H12C11.45 3 11 3.45 11 4V5.61L11.01 5.62L16.01 10.12C16.64 10.68 17 11.5 17 12.35V13H19V15H17V17H19V19H17V21H20C20.55 21 21 20.55 21 20V4C21 3.45 20.55 3 20 3ZM15 7H13V5H15V7ZM19 11H17V9H19V11ZM19 7H17V5H19V7Z" fill="#888888"/>
<path d="M14.9999 19.9999V12.3499C14.9996 12.2104 14.9701 12.0725 14.9132 11.945C14.8564 11.8176 14.7735 11.7034 14.6699 11.6099L9.66994 7.10994C9.4887 6.93979 9.24851 6.84659 8.99994 6.84994C8.75994 6.84994 8.51994 6.93994 8.32994 7.10994L3.32994 11.6099C3.22484 11.7022 3.14093 11.8161 3.08398 11.9438C3.02702 12.0716 2.99835 12.2101 2.99994 12.3499V19.9999C2.99994 20.5499 3.44994 20.9999 3.99994 20.9999H5.99994C6.54994 20.9999 6.99994 20.5499 6.99994 19.9999V15.9999H10.9999V19.9999C10.9999 20.5499 11.4499 20.9999 11.9999 20.9999H13.9999C14.5499 20.9999 14.9999 20.5499 14.9999 19.9999Z" fill="#888888"/>
</svg>
