<svg width="24" height="24" viewBox="0 0 24 24" fill="none" xmlns="http://www.w3.org/2000/svg">
<path d="M3.95996 11.38C4.23996 9.91 5.61996 8.9 7.11996 8.9H10.05C10.57 8.9 11 8.47 11 7.95C11 7.43 10.57 7 10.05 7H7.21996C4.60996 7 2.27996 8.91 2.02996 11.51C1.96082 12.2042 2.03788 12.9052 2.25617 13.5679C2.47446 14.2305 2.82914 14.8401 3.29736 15.3573C3.76558 15.8745 4.33695 16.2879 4.97467 16.5708C5.61238 16.8537 6.3023 16.9999 6.99996 17H10.05C10.57 17 11 16.57 11 16.05C11 15.53 10.57 15.1 10.05 15.1H6.99996C6.54063 15.0986 6.08732 14.9954 5.6726 14.798C5.25788 14.6005 4.89204 14.3136 4.60139 13.958C4.31073 13.6023 4.10247 13.1867 3.99156 12.7409C3.88066 12.2952 3.86986 11.8304 3.95996 11.38ZM8.99996 13H15C15.55 13 16 12.55 16 12C16 11.45 15.55 11 15 11H8.99996C8.44996 11 7.99996 11.45 7.99996 12C7.99996 12.55 8.44996 13 8.99996 13ZM16.78 7H13.95C13.43 7 13 7.43 13 7.95C13 8.47 13.43 8.9 13.95 8.9H16.88C18.38 8.9 19.76 9.91 20.04 11.38C20.1301 11.8304 20.1193 12.2952 20.0084 12.7409C19.8975 13.1867 19.6892 13.6023 19.3985 13.958C19.1079 14.3136 18.742 14.6005 18.3273 14.798C17.9126 14.9954 17.4593 15.0986 17 15.1H13.95C13.43 15.1 13 15.53 13 16.05C13 16.57 13.43 17 13.95 17H17C19.92 17 22.26 14.49 21.98 11.51C21.73 8.91 19.39 7 16.78 7Z" fill="#888888"/>
</svg>
