<svg width="24" height="24" viewBox="0 0 24 24" fill="none" xmlns="http://www.w3.org/2000/svg">
<path d="M4.00001 21H20C20.55 21 21 20.55 21 20C21 19.45 20.55 19 20 19H4.00001C3.45001 19 3.00001 19.45 3.00001 20C3.00001 20.55 3.45001 21 4.00001 21ZM3.00001 9.21V14.8C3.00001 15.25 3.54001 15.47 3.85001 15.15L6.64001 12.36C6.84001 12.16 6.84001 11.85 6.64001 11.65L3.85001 8.85C3.77951 8.7809 3.69014 8.73421 3.59315 8.71582C3.49616 8.69743 3.3959 8.70816 3.305 8.74665C3.2141 8.78515 3.13663 8.8497 3.08236 8.93215C3.02808 9.01461 2.99943 9.11129 3.00001 9.21ZM12 17H20C20.55 17 21 16.55 21 16C21 15.45 20.55 15 20 15H12C11.45 15 11 15.45 11 16C11 16.55 11.45 17 12 17ZM3.00001 4C3.00001 4.55 3.45001 5 4.00001 5H20C20.55 5 21 4.55 21 4C21 3.45 20.55 3 20 3H4.00001C3.45001 3 3.00001 3.45 3.00001 4ZM12 9H20C20.55 9 21 8.55 21 8C21 7.45 20.55 7 20 7H12C11.45 7 11 7.45 11 8C11 8.55 11.45 9 12 9ZM12 13H20C20.55 13 21 12.55 21 12C21 11.45 20.55 11 20 11H12C11.45 11 11 11.45 11 12C11 12.55 11.45 13 12 13Z" fill="#888888"/>
</svg>
