<svg width="24" height="24" viewBox="0 0 24 24" fill="none" xmlns="http://www.w3.org/2000/svg">
<path d="M20.59 10H12.65C12.1664 8.63054 11.2029 7.48277 9.93782 6.76935C8.6728 6.05593 7.19206 5.82524 5.76996 6.12C3.47996 6.58 1.61996 8.42 1.13996 10.7C0.945662 11.5772 0.950769 12.4868 1.1549 13.3617C1.35904 14.2367 1.75699 15.0546 2.31941 15.7552C2.88183 16.4559 3.59436 17.0213 4.40445 17.4098C5.21454 17.7983 6.10152 18 6.99996 18C8.2399 18 9.4493 17.6153 10.4613 16.8988C11.4733 16.1824 12.238 15.1695 12.65 14H13L14.29 15.29C14.68 15.68 15.31 15.68 15.7 15.29L17 14L18.29 15.29C18.68 15.68 19.32 15.68 19.71 15.29L22.3 12.68C22.3932 12.5864 22.4669 12.4753 22.5169 12.3531C22.5669 12.2309 22.5921 12.1 22.5912 11.9679C22.5903 11.8359 22.5632 11.7053 22.5115 11.5838C22.4597 11.4623 22.3845 11.3522 22.29 11.26L21.3 10.29C21.1 10.1 20.85 10 20.59 10ZM6.99996 15C5.34996 15 3.99996 13.65 3.99996 12C3.99996 10.35 5.34996 9 6.99996 9C8.64996 9 9.99996 10.35 9.99996 12C9.99996 13.65 8.64996 15 6.99996 15Z" fill="#888888"/>
</svg>
