<svg width="24" height="24" viewBox="0 0 24 24" fill="none" xmlns="http://www.w3.org/2000/svg">
<path d="M8.12004 14.71L12 10.83L15.88 14.71C15.9726 14.8026 16.0825 14.876 16.2035 14.9261C16.3245 14.9762 16.4541 15.002 16.585 15.002C16.716 15.002 16.8456 14.9762 16.9666 14.9261C17.0875 14.876 17.1975 14.8026 17.29 14.71C17.3826 14.6174 17.4561 14.5075 17.5062 14.3865C17.5563 14.2656 17.5821 14.1359 17.5821 14.005C17.5821 13.8741 17.5563 13.7444 17.5062 13.6235C17.4561 13.5025 17.3826 13.3926 17.29 13.3L12.7 8.71C12.6075 8.6173 12.4976 8.54375 12.3767 8.49357C12.2557 8.44339 12.126 8.41756 11.995 8.41756C11.8641 8.41756 11.7344 8.44339 11.6134 8.49357C11.4924 8.54375 11.3826 8.6173 11.29 8.71L6.70004 13.3C6.60733 13.3925 6.53379 13.5024 6.4836 13.6234C6.43342 13.7443 6.40759 13.874 6.40759 14.005C6.40759 14.136 6.43342 14.2657 6.4836 14.3866C6.53379 14.5076 6.60733 14.6175 6.70004 14.71C7.09004 15.09 7.73004 15.1 8.12004 14.71Z" fill="#888888"/>
</svg>
