<svg width="24" height="24" viewBox="0 0 24 24" fill="none" xmlns="http://www.w3.org/2000/svg">
<path d="M14.71 15.88L10.83 12L14.71 8.11999C14.8026 8.02741 14.8761 7.9175 14.9262 7.79653C14.9763 7.67557 15.0021 7.54592 15.0021 7.41499C15.0021 7.28406 14.9763 7.15441 14.9262 7.03345C14.8761 6.91248 14.8026 6.80257 14.71 6.70999C14.6175 6.61741 14.5076 6.54397 14.3866 6.49386C14.2656 6.44376 14.136 6.41797 14.005 6.41797C13.8741 6.41797 13.7445 6.44376 13.6235 6.49386C13.5025 6.54397 13.3926 6.61741 13.3 6.70999L8.71005 11.3C8.61734 11.3925 8.5438 11.5024 8.49361 11.6234C8.44343 11.7443 8.4176 11.874 8.4176 12.005C8.4176 12.136 8.44343 12.2656 8.49361 12.3866C8.5438 12.5076 8.61734 12.6175 8.71005 12.71L13.3 17.3C13.69 17.69 14.32 17.69 14.71 17.3C15.09 16.91 15.1 16.27 14.71 15.88Z" fill="#888888"/>
</svg>
