<svg width="24" height="24" viewBox="0 0 24 24" fill="none" xmlns="http://www.w3.org/2000/svg">
<path d="M13.17 2H6C4.9 2 4 2.9 4 4V20C4 21.1 4.9 22 6 22H18C19.1 22 20 21.1 20 20V8.83C20 8.3 19.79 7.79 19.41 7.42L14.58 2.59C14.21 2.21 13.7 2 13.17 2ZM12 10C13.1 10 14 10.9 14 12C14 13.1 13.1 14 12 14C10.9 14 10 13.1 10 12C10 10.9 10.9 10 12 10ZM16 18H8V17.43C8 16.62 8.48 15.9 9.22 15.58C10.0969 15.1973 11.0433 14.9998 12 14.9998C12.9567 14.9998 13.9031 15.1973 14.78 15.58C15.1423 15.7349 15.4511 15.9928 15.668 16.3217C15.8849 16.6506 16.0003 17.036 16 17.43V18Z" fill="#888888"/>
</svg>
