<svg width="24" height="24" viewBox="0 0 24 24" fill="none" xmlns="http://www.w3.org/2000/svg">
<path d="M19.3636 4H4.63636C3.73636 4 3 4.73636 3 5.63636V15.4545C3 16.3545 3.73636 17.0909 4.63636 17.0909H10.3636V18.7273H9.54545C9.09545 18.7273 8.72727 19.0955 8.72727 19.5455C8.72727 19.9955 9.09545 20.3636 9.54545 20.3636H14.4545C14.9045 20.3636 15.2727 19.9955 15.2727 19.5455C15.2727 19.0955 14.9045 18.7273 14.4545 18.7273H13.6364V17.0909H19.3636C20.2636 17.0909 21 16.3545 21 15.4545V5.63636C21 4.73636 20.2636 4 19.3636 4ZM18.5455 15.4545H5.45455C5.00455 15.4545 4.63636 15.0864 4.63636 14.6364V6.45455C4.63636 6.00455 5.00455 5.63636 5.45455 5.63636H18.5455C18.9955 5.63636 19.3636 6.00455 19.3636 6.45455V14.6364C19.3636 15.0864 18.9955 15.4545 18.5455 15.4545Z" fill="#888888"/>
</svg>
