<svg width="24" height="24" viewBox="0 0 24 24" fill="none" xmlns="http://www.w3.org/2000/svg">
<path d="M3.85999 18.46C6.50999 21.91 10.97 22.83 14.6 21.25C15.21 20.98 15.34 20.16 14.87 19.69L14.82 19.64C14.53 19.35 14.1 19.29 13.72 19.45C10.76 20.69 7.12999 19.82 5.13999 16.83C3.55999 14.46 3.58999 11.46 5.18999 9.10002C6.59999 7.03002 8.79999 6.03002 11 6.03002V7.79002C11 8.24002 11.54 8.46002 11.86 8.15002L14.65 5.36002C14.85 5.16002 14.85 4.85002 14.65 4.65002L11.85 1.86002C11.781 1.78906 11.6924 1.74039 11.5955 1.72029C11.4987 1.70018 11.398 1.70957 11.3065 1.74725C11.215 1.78492 11.1369 1.84914 11.0823 1.93163C11.0276 2.01412 10.999 2.11109 11 2.21002V4.01002C8.23999 4.01002 5.47999 5.26002 3.65999 7.79002C1.37999 10.96 1.45999 15.37 3.85999 18.46Z" fill="#888888"/>
<path d="M17.7 7.71005C17.6075 7.61734 17.4976 7.5438 17.3767 7.49361C17.2557 7.44343 17.126 7.4176 16.995 7.4176C16.8641 7.4176 16.7344 7.44343 16.6134 7.49361C16.4924 7.5438 16.3826 7.61734 16.29 7.71005L11.7 12.29C11.6073 12.3826 11.5338 12.4924 11.4836 12.6134C11.4334 12.7344 11.4076 12.8641 11.4076 12.995C11.4076 13.126 11.4334 13.2557 11.4836 13.3767C11.5338 13.4976 11.6073 13.6075 11.7 13.7L16.29 18.29C16.68 18.68 17.31 18.68 17.7 18.29L22.29 13.7C22.3827 13.6075 22.4563 13.4976 22.5065 13.3767C22.5567 13.2557 22.5825 13.126 22.5825 12.995C22.5825 12.8641 22.5567 12.7344 22.5065 12.6134C22.4563 12.4924 22.3827 12.3826 22.29 12.29L17.7 7.71005Z" fill="#888888"/>
</svg>
